<?xml version="1.0" encoding="UTF-8"?>
<svg id="Layer_1" data-name="Layer 1" xmlns="http://www.w3.org/2000/svg" xmlns:xlink="http://www.w3.org/1999/xlink" viewBox="0 0 493 493">
  <defs>
    <style>
      .cls-1 {
        fill: #ffb6b6;
      }

      .cls-2 {
        fill: #2f2e41;
      }

      .cls-3 {
        fill: #00a8e8;
      }

      .cls-4 {
        fill: url(#linear-gradient);
      }
    </style>
    <linearGradient id="linear-gradient" x1="0" y1="246.5" x2="493" y2="246.5" gradientUnits="userSpaceOnUse">
      <stop offset=".23" stop-color="#00a8e8"/>
      <stop offset="1" stop-color="#2541b2"/>
    </linearGradient>
  </defs>
  <circle class="cls-1" cx="250.91" cy="241.81" r="80.02"/>
  <polygon class="cls-1" points="204.97 333.66 201.36 297.11 273.55 283.62 316.18 387.41 242.04 472.66 189.22 368.87 204.97 333.66"/>
  <path class="cls-2" d="m200.2,315.41l15.78,3.57s-12.41-39.34-8.2-43.1c4.21-3.76,14.53,2.16,14.53,2.16l10.84,12.16,13.21-13.45s14.34-17.83,19.96-22.84c5.61-5.01-3.4-23.6-3.4-23.6,0,0,83.3-22.46,52.31-62.87,0,0-18.17-31.68-24.09-21.36-5.92,10.32-12.98-6.07-12.98-6.07l-21.55,4.1s-42.53-25.08-82.9,28.57c-40.37,53.65,26.48,142.73,26.48,142.73h0Z"/>
  <path class="cls-3" d="m401.41,438.28c-43.73,35.46-97.83,54.72-154.91,54.72-52.12,0-101.76-16.07-143.29-45.85.07-.78.15-1.55.21-2.32,1.1-12.05,2.09-23.76,2.73-33.47,2.51-37.71,90.48-62.84,90.48-62.84,0,0,.4.4,1.2,1.09,4.86,4.26,24.57,19.72,59.13,24.04,30.82,3.86,40.97-14.43,44.04-23.19.93-2.67,1.2-4.46,1.2-4.46l90.48,42.73c5.9,8.43,8.21,26.6,8.66,47.01.02.84.04,1.68.05,2.53Z"/>
  <path class="cls-4" d="m420.8,72.2C374.24,25.64,312.34,0,246.5,0S118.76,25.64,72.2,72.2C25.64,118.76,0,180.66,0,246.5c0,60.1,21.36,116.91,60.5,161.77,3.73,4.29,7.64,8.47,11.69,12.53.95.95,1.92,1.91,2.89,2.84,2.59,2.51,5.24,4.97,7.92,7.35,1.63,1.45,3.28,2.88,4.95,4.28,1.31,1.1,2.61,2.19,3.94,3.25.03.03.05.05.07.06,3.68,2.97,7.42,5.82,11.24,8.56,41.53,29.78,91.17,45.85,143.29,45.85,57.07,0,111.18-19.27,154.91-54.72,3.57-2.89,7.06-5.89,10.49-9,3.03-2.74,6-5.57,8.91-8.48.92-.92,1.83-1.84,2.73-2.78,2.5-2.58,4.93-5.2,7.3-7.86,40.19-45.15,62.16-102.71,62.16-163.66,0-65.84-25.64-127.74-72.2-174.3Zm9.43,335.66c-2.32,2.63-4.69,5.23-7.12,7.76-3.78,3.94-7.68,7.76-11.71,11.44-1.53,1.41-3.08,2.78-4.64,4.14-1.78,1.55-3.58,3.07-5.4,4.56-14.39,11.82-30.15,22.01-47.01,30.31-6.66,3.29-13.49,6.28-20.48,8.96-27.14,10.42-56.6,16.12-87.37,16.12s-58.16-5.32-84.51-15.05c-10.81-3.98-21.27-8.72-31.3-14.14-1.47-.8-2.94-1.6-4.39-2.43-7.65-4.34-15.06-9.07-22.17-14.19-.23-.17-.47-.34-.7-.51-5.06-3.65-9.98-7.5-14.73-11.54-1.74-1.47-3.47-2.97-5.16-4.49-2.76-2.46-5.47-4.99-8.11-7.58-5-4.9-9.79-10.01-14.35-15.32C24.18,363.05,1.85,307.34,1.85,246.5,1.85,111.6,111.6,1.85,246.5,1.85s244.65,109.75,244.65,244.65c0,61.77-23.01,118.26-60.91,161.36Z"/>
</svg>