<?xml version="1.0" encoding="UTF-8"?>
<svg id="Layer_1" data-name="Layer 1" xmlns="http://www.w3.org/2000/svg" viewBox="0 0 537.7 563.27">
  <defs>
    <style>
      .cls-1, .cls-2 {
        fill: #f4f4f4;
      }

      .cls-3 {
        fill: #2f2e43;
      }

      .cls-4 {
        fill: #21db49;
      }

      .cls-5 {
        fill: #303030;
      }

      .cls-6 {
        fill: #1c1c1c;
      }

      .cls-7 {
        fill: #f8a8ab;
      }

      .cls-8 {
        fill: #e8e6e7;
      }

      .cls-9 {
        fill: #e2e3e4;
      }

      .cls-2 {
        stroke: #231f20;
        stroke-miterlimit: 10;
        stroke-width: .1px;
      }

      .cls-10 {
        fill: #35ff69;
      }

      .cls-11 {
        fill: #00a8e8;
      }

      .cls-12 {
        fill: #262526;
      }
    </style>
  </defs>
  <path class="cls-9" d="m208.9,348.97c-7.2,2.3-11.5,9.9-9.6,17.2l18.5,76.3c1.8,7.7,9.5,12.5,17.2,10.8l70.3-15.4c8.4-1.8,13.4-10.7,10.6-18.9l-27.7-80.5c-2.6-7.5-10.7-11.5-18.2-9.1l-61.1,19.6h0Z"/>
  <g>
    <path class="cls-8" d="m268.6,389.47l1.8-.6c.7,6.5-3.1,12.7-9.5,14.8-.2,0-.3.1-.5.1,5.6-2.5,8.8-8.3,8.2-14.3Z"/>
    <path class="cls-4" d="m267.4,385.17c-2.7-5.9-9.2-9.2-15.6-7.9.1,0,.3-.1.4-.1,6.8-2.3,14.1,1,17,7.4.2.5.4,1,.6,1.5.3.9.5,1.9.6,2.8l-1.8.6c-.1-.9-.3-1.9-.6-2.8-.2-.5-.4-1-.6-1.5h0Z"/>
    <path class="cls-10" d="m260.5,392.07c-.4,1.3-1.3,2.3-2.6,2.7-1.2.5-2.6.2-3.6-.6l6.2-2.1Z"/>
    <path class="cls-12" d="m268,386.67c-.2-.5-.4-1-.6-1.5l1.8-.6c.2.5.4,1,.6,1.5.3.9.5,1.9.6,2.8l-1.8.6c-.1-.9-.3-1.8-.6-2.8Z"/>
    <path class="cls-10" d="m251.8,377.27c6.4-1.3,12.9,2,15.6,7.9l-24.5,8c-1.4-6.7,2.4-13.5,8.9-15.9Z"/>
    <path class="cls-5" d="m242.9,393.17l24.5-8c.2.5.4,1,.6,1.5.3.9.5,1.9.6,2.8l-24.1,7.9c-.5-.8-.9-1.7-1.2-2.6-.1-.5-.3-1.1-.4-1.6Z"/>
    <path class="cls-5" d="m253,389.97c.4-1.3,1.3-2.3,2.6-2.7,1.2-.5,2.6-.2,3.6.6.6.5,1.1,1.2,1.3,1.9s.2,1.6,0,2.3c-.4,1.3-1.3,2.3-2.6,2.7-1.2.5-2.6.2-3.6-.6-.6-.5-1-1.1-1.3-1.9s-.3-1.6,0-2.3Z"/>
    <circle class="cls-1" cx="256.8" cy="390.97" r="3.2"/>
    <circle class="cls-2" cx="256.8" cy="390.97" r="2.3"/>
    <path class="cls-1" d="m254.4,394.17c1,.7,2.3,1,3.6.6,1.3-.5,2.2-1.5,2.6-2.7l8-2.6c.6,6-2.6,11.8-8.2,14.3-6.2,1.8-12.8-.9-15.9-6.4l9.9-3.2Z"/>
  </g>
  <path id="uuid-fb6bba6d-324d-4625-a98c-3d990729dcd8-114-164-127-675" class="cls-7" d="m243.3,308.67h0c.8-3.4.6-7-.6-10.4l9.4-34.7-17.8-5.9-7.6,35.8c-2.2,2.6-3.7,5.7-4.3,9.1-1.6,8.4,1.6,16.7,7.4,18.4s11.8-3.8,13.5-12.3h0Z"/>
  <rect class="cls-7" x="262.7" y="514.37" width="20.9" height="29.7"/>
  <path class="cls-6" d="m264.9,561.07c-.1,0-13.5,1-22.9,1.1-2.2,0-4.1-.1-5.6-.2-5.5-.5-10.8-4.6-13.5-7-1.2-1.1-1.6-2.8-1-4.3h0c.5-1.1,1.4-1.9,2.5-2.2l14.7-4.2,23.8-16.1.3.5c.1.1,2.4,4.4,3.2,7.2.3,1.1.3,2-.2,2.7-.3.5-.7.7-1.1.9.4.4,1.7,1.3,5.9,2,6.1,1,7.4-5.3,7.4-5.6v-.2l.2-.1c2.9-1.8,4.7-2.7,5.3-2.5.4.1,1.1.3,2.8,17.4.2.5,1.4,4.4.6,8.2-.9,4.1-18.8,2.7-22.4,2.4h0Z"/>
  <rect class="cls-7" x="320.7" y="514.37" width="20.9" height="29.7"/>
  <path class="cls-6" d="m322.9,561.07c-.1,0-13.5,1-22.9,1.1-2.2,0-4.1-.1-5.6-.2-5.5-.5-10.8-4.6-13.5-7-1.2-1.1-1.6-2.8-1-4.3h0c.5-1.1,1.4-1.9,2.5-2.2l14.7-4.2,23.8-16.1.3.5c.1.1,2.4,4.4,3.2,7.2.3,1.1.2,2-.2,2.7-.3.5-.7.7-1.1.9.4.4,1.7,1.3,5.9,2,6.1,1,7.3-5.3,7.4-5.6v-.2l.2-.1c2.9-1.8,4.7-2.7,5.3-2.5.4.1,1.1.3,2.8,17.4.2.5,1.4,4.4.6,8.2-.9,4.1-18.8,2.7-22.4,2.4h0Z"/>
  <polygon class="cls-7" points="321.6 64.17 292.1 64.17 292.1 110.87 324.6 100.27 321.6 64.17"/>
  <circle class="cls-7" cx="296.1" cy="44.77" r="32.4"/>
  <path class="cls-6" d="m304.4,47.27c16.5-7,14.6,18.2,14.6,18.2l3.2,6,13.9-26.5c8.4-25.6-20.9-40.4-20.9-40.4-9.6-11.3-28.8,1.9-28.8,1.9-27.7-6.2-14.4,17.1-14.4,17.1,0,0,9.5.3,9.5,7.9,0,7.6,10.3,7.1,10.3,7.1l8.1,14.1,4.5-5.4h0Z"/>
  <path class="cls-6" d="m536.5,560.87H1.2c-.7,0-1.2.5-1.2,1.2,0,.7.5,1.2,1.2,1.2h535.3c.7,0,1.2-.5,1.2-1.2,0-.7-.5-1.2-1.2-1.2Z"/>
  <path class="cls-3" d="m215.1,365.97c-.4-2.2-9.4-55,10.7-61.7,20.4-6.8,33.3,29.6,33.8,31.1l-3.8,1.3s-3.1-8.8-8.4-16.8c-6.7-10.1-13.6-14.1-20.4-11.8-14,4.7-10.5,42.9-8,57.2l-3.9.7h0Z"/>
  <polygon class="cls-6" points="254.7 402.87 258 527.87 286.2 526.37 291.9 416.47 311.5 329.27 313 527.87 344 529.87 370.7 254.17 261.5 254.17 254.7 402.87"/>
  <polygon class="cls-11" points="370.7 254.17 354.1 269.87 261.5 254.17 257.7 228.87 289.4 92.17 326.4 83.17 370.7 254.17"/>
  <polygon class="cls-6" points="300.7 107.37 324.2 305.47 408.5 291.17 364.7 96.67 339.1 90.47 326.4 76.27 300.7 107.37"/>
  <polygon class="cls-6" points="278.3 94.47 256.9 111.47 249.7 317.87 265.4 317.87 296 106.97 289.4 83.37 278.3 94.47"/>
  <path class="cls-6" d="m269.6,108.87l-8.3,136.9-11.5,46.1-24.5-8.1,21.6-85.6s.4-53.1,2.4-68.9,7.6-17.8,7.6-17.8l12.7-2.6h0Z"/>
  <polygon class="cls-6" points="292.3 92.17 296.4 98.37 306.7 100.37 311.8 94.27 316.8 97.87 302.6 109.67 312.3 242.27 299 254.47 284.7 241.17 296.9 109.17 290.8 97.87 292.3 92.17"/>
  <path id="uuid-4155b336-10d9-4b14-826d-07551e167be9-115-165-128-676" class="cls-7" d="m351.1,275.47h0c2.1-2.7,3.5-6.1,4.1-9.7l23.3-27.3-13.6-12.9-22.2,29.1c-3.1,1.4-5.8,3.6-7.8,6.4-5.1,6.9-5.7,15.9-1.2,19.8,4.5,3.9,12.3,1.6,17.4-5.4h0Z"/>
  <path class="cls-6" d="m354.6,99.87l11.8,82-19,60.7,20.1,24.4,37.7-66.1-22.2-83.6c-4.6-17.2-18.3-20.6-18.3-20.6l-10.1,3.2h0Z"/>
</svg>