<?xml version="1.0" encoding="utf-8"?>
<!-- Generator: Adobe Illustrator 27.1.1, SVG Export Plug-In . SVG Version: 6.00 Build 0)  -->
<svg version="1.1" id="Layer_1" xmlns="http://www.w3.org/2000/svg" xmlns:xlink="http://www.w3.org/1999/xlink" x="0px" y="0px"
	 viewBox="0 0 900.3 787" style="enable-background:new 0 0 900.3 787;" xml:space="preserve">
<style type="text/css">
	.st0{fill:#CACACA;}
	.st1{fill:#FFB9B9;}
	.st2{opacity:0.1;enable-background:new    ;}
	.st3{fill:#00A8E8;}
	.st4{fill:#090814;}
	.st5{opacity:0.1;fill:none;stroke:#000000;stroke-miterlimit:10;enable-background:new    ;}
	.st6{fill:#2541B2;}
	.st7{fill:#D6D6E3;}
	.st8{fill:#E8E6E7;}
	.st9{fill:#21DB49;}
	.st10{fill:#35FF69;}
	.st11{fill:#262526;}
	.st12{fill:#303030;}
	.st13{fill:#F4F4F4;}
	.st14{fill:#F4F4F4;stroke:#231F20;stroke-width:0.1;stroke-miterlimit:10;}
</style>
<g id="Group_2" transform="translate(-510.055 -146.5)">
	<path id="Path_72-618" class="st0" d="M973.3,289.8L973.3,289.8c29.9,0,54.2,24.3,54.2,54.2v23.1H919.1V344
		C919.1,314.1,943.4,289.8,973.3,289.8L973.3,289.8L973.3,289.8z"/>
	<ellipse id="Ellipse_16" class="st0" cx="973.7" cy="374.7" rx="61.7" ry="42.4"/>
	<path id="Path_73-619" class="st1" d="M934.1,415.8c0,0,12.9,67.4,0,85.6c-12.9,18.2,39.4,25.4,39.4,25.4l54.2-19.7l7.6-48.5
		c0,0-33-18.6-26.1-56.1L934.1,415.8z"/>
	<path id="Path_74-620" class="st1" d="M1093.9,643.1c0,0,3.4,14.8-15.2,17.4c-11,1.6-22.1,1.5-33-0.4l-4.1-37.1h43.2L1093.9,643.1z
		"/>
	<path id="Path_75-621" class="st1" d="M766.1,624.2c0,0-8.2,33.3,10.4,36.3c18.6,3,86.7,3,86.7,3v-39.4l-30.9,6.6l-29-27.8
		L766.1,624.2z"/>
	<path id="Path_76-622" class="st2" d="M938.1,437.6l-72.5,15.3c0,0-27.7,1.1-45.5,37.9c-17.8,36.7-56.4,141.7-56.4,141.7
		s33-33.3,71.6,2.3l25.8-46.6l-5.7,73.9h199.6v-34.9c0,0,41.7,22.3,38.6,34.8c0,0,35.7-91.9,28-133.6c-2.3-12.9-3.7-26-4.3-39.1l0,0
		c-0.9-22.1-15.7-41.2-36.8-47.8c-3.8-1.2-7.9-2.2-12.5-3.2c-42.8-9.1-53.8,0-53.8,0s-8.3,27-8.1,39.2c0.2,15.7-22.3,26.1-22.3,26.1
		s-33.3-8-34.8-14.4C947.3,482.8,935.4,445.1,938.1,437.6z"/>
	<path id="Path_77-623" class="st3" d="M938.1,436.1l-72.5,15.3c0,0-27.7,1.1-45.5,37.9C802.3,526,763.6,631,763.6,631
		s33-33.3,71.6,2.3l25.8-46.6l-5.7,73.8h199.6v-34.8c0,0,41.7,22.3,38.6,34.8c0,0,35.7-91.9,28-133.6c-2.3-12.9-3.7-26-4.3-39.1l0,0
		c-0.9-22.1-15.7-41.2-36.8-47.8c-3.8-1.2-7.9-2.2-12.5-3.2c-42.8-9.1-53.8,0-53.8,0s-8.3,27-8.1,39.2c0.2,15.7-22.3,26.1-22.3,26.1
		s-33.3-8-34.8-14.4C947.3,481.3,935.4,443.6,938.1,436.1z"/>
	<path id="Path_78-624" class="st2" d="M1012.2,432.8c-3-8.6-3.7-17.9-2-26.9l-75,13.3c0,0,1.1,5.7,2.3,14.2
		c19.7,20.5,52.3,21.1,72.8,1.3C1011,434.1,1011.6,433.5,1012.2,432.8L1012.2,432.8z"/>
	<path id="Path_79-625" class="st1" d="M1025,394.2c0.3,28.4-22.4,51.8-50.9,52.1c-28.4,0.3-51.8-22.4-52.1-50.9c0-0.4,0-0.8,0-1.2
		c0-28.4,23-51.5,51.5-51.5c2.9,0,5.8,0.2,8.7,0.7l0,0c23.5,4,41.2,23.6,42.7,47.4C1024.9,391.9,1025,393.1,1025,394.2z"/>
	<path id="Path_82-626" class="st4" d="M955.5,345.9L955.5,345.9c-20.2,7.4-33.6,26.7-33.6,48.3c0,0.4,0,0.8,0,1.2
		c1.6,0,3.2-0.4,4.6-1.1c12.6-5.9,20.1-23.8,23.1-36.3C950.7,353.6,951.7,348.5,955.5,345.9z"/>
	<path id="Path_83-627" class="st4" d="M994.9,347.4c-4.1-1.9-8.4-3.2-12.8-3.9c3.6,0.8,6.9,2.9,9.2,5.8c1.1,1.6,2.1,3.2,2.8,5
		c-13.9-6.1-29.7-5.7-43.3,0.9c3.2,7.1,13.3,11,20,13.5c7.3,2.8,14.7,5.4,22.2,7.8l-6.6-5.4l15,2.4c0.2-3-0.2-6-1-8.8
		c2.9,2.3,6.7,3.1,9.8,5c5.8,3.7,8.3,10.8,11.4,16.9c0.8,1.6,1.8,3.3,3.3,4.3C1023.6,371.9,1012.1,355.3,994.9,347.4L994.9,347.4z"
		/>
	<path id="Path_85-628" class="st0" d="M916.1,384.5c0,0,53-65.9,114.4,0l-5.3-14.8c0,0-28.8-42-49.2-33s-40.5,15.5-40.5,15.5
		L916.1,384.5z"/>
	<path id="Path_86-629" class="st2" d="M872.5,526.6c0,0-11.4,30.3,4.5,57.6c15.9,27.3-14,38.6-14,38.6"/>
	<path id="Path_87-630" class="st2" d="M1056.6,499.3c0,0,19.7,25,6.8,47.3c-12.9,22.3-12.1,76.1-12.1,76.1"/>
	<path id="Path_88-631" class="st4" d="M855.1,645.2H1074c10,0,18.2,8.1,18.2,18.2H836.9C836.9,653.3,845,645.2,855.1,645.2z"/>
	<path id="Path_89-632" class="st4" d="M877.4,520.1h174.4c15.4,0,28,12.5,28,28v101.2H849.4V548.1
		C849.4,532.7,861.9,520.1,877.4,520.1z"/>
	<path id="Path_90-633" class="st5" d="M919.1,354.8c0,0,52.1-52.1,108.3-1"/>
	<rect id="Rectangle_55" x="1035.4" y="351.5" class="st0" width="5.2" height="29.7"/>
	<path id="Path_91-634" class="st6" d="M1028.4,370.7L1028.4,370.7c10,0,18,8.1,18,18v1.2c0,10-8.1,18-18,18l0,0V370.7z"/>
	<path id="Rectangle_56" class="st4" d="M1029,368.9L1029,368.9c2.2,0,4.1,1.8,4.1,4.1v32.6c0,2.2-1.8,4.1-4.1,4.1l0,0
		c-2.2,0-4.1-1.8-4.1-4.1V373C1024.9,370.8,1026.7,368.9,1029,368.9z"/>
	<rect id="Rectangle_57" x="905.4" y="352.1" class="st0" width="5.2" height="29.7"/>
	<path id="Path_92-635" class="st6" d="M917.6,408.5L917.6,408.5c-10,0-18-8.1-18-18v-1.2c0-10,8.1-18,18-18l0,0V408.5z"/>
	<path id="Rectangle_58" class="st4" d="M917,410.2L917,410.2c-2.2,0-4.1-1.8-4.1-4.1v-32.6c0-2.2,1.8-4.1,4.1-4.1l0,0
		c2.2,0,4.1,1.8,4.1,4.1v32.6C921.1,408.4,919.3,410.2,917,410.2z"/>
	<path id="Path_93-636" class="st6" d="M1034.8,319.8c-7.1-14.7-22.5-32.6-55.8-34v0h-0.4l-11.8,0.6v0.1
		c-33.1,1.5-48.4,19.3-55.5,34c-4.7,10-7.2,20.8-7.3,31.8l4.1-0.1l4.1-0.1c0.2-9.8,2.4-19.5,6.6-28.3c9-18.4,25.5-28.2,49.1-29.1
		l0,0l10.4-0.6l0,0c23.6,0.9,40.1,10.7,49.1,29.1c4.2,8.9,6.5,18.5,6.6,28.3l4.1,0.1l4.1,0.1C1042,340.6,1039.5,329.7,1034.8,319.8z
		"/>
	<rect id="Rectangle_59" x="665.5" y="663.6" class="st7" width="555.3" height="149.1"/>
	<rect id="Rectangle_60" x="665.5" y="673.6" class="st2" width="555.3" height="15.8"/>
	<rect id="Rectangle_61" x="628.2" y="661.4" class="st7" width="629.8" height="19.4"/>
	<g>
		<path class="st8" d="M967.3,606.8c-0.2,0-0.3,0-0.5,0c-6.2,0-11.4-4.4-12.6-10.3h1.8C957.2,602,961.7,606.2,967.3,606.8z"/>
		<path class="st9" d="M955.8,592.5c-0.1,0.5-0.1,1-0.1,1.5c0,0.9,0.1,1.8,0.3,2.7h-1.8c-0.2-0.9-0.3-1.7-0.3-2.7c0-0.5,0-1,0.1-1.5
			c0.7-6.4,6.2-11.4,12.8-11.4c0.1,0,0.3,0,0.4,0C961.3,581.7,956.5,586.4,955.8,592.5L955.8,592.5z"/>
		<path class="st10" d="M969.9,596.6c-0.7,1-1.8,1.6-3,1.6s-2.4-0.6-3-1.6H969.9z"/>
		<path class="st11" d="M956,596.6h-1.8c-0.2-0.9-0.3-1.7-0.3-2.7c0-0.5,0-1,0.1-1.5h1.8c-0.1,0.5-0.1,1-0.1,1.5
			C955.8,594.8,955.8,595.7,956,596.6z"/>
		<path class="st10" d="M979.7,592.5h-23.9c0.7-6,5.5-10.8,11.5-11.4C973.7,581.2,979,586.2,979.7,592.5z"/>
		<path class="st12" d="M979.8,593.9c0,0.9-0.1,1.8-0.3,2.7H956c-0.2-0.9-0.3-1.7-0.3-2.7c0-0.5,0-1,0.1-1.5h23.9
			C979.8,592.9,979.8,593.4,979.8,593.9z"/>
		<path class="st12" d="M970.5,594.5c0,0.8-0.2,1.5-0.6,2.1c-0.7,1-1.8,1.6-3,1.6s-2.4-0.6-3-1.6c-0.4-0.6-0.6-1.3-0.6-2.1
			s0.2-1.5,0.6-2.1c0.7-1,1.8-1.6,3-1.6s2.4,0.6,3,1.6C970.3,593,970.5,593.8,970.5,594.5z"/>
		<circle class="st13" cx="966.9" cy="594.5" r="2.9"/>
		<circle class="st14" cx="966.9" cy="594.5" r="2.1"/>
		<path class="st13" d="M979.5,596.6c-1.2,5.7-6.2,10-12.2,10.3c-5.6-0.6-10.2-4.8-11.3-10.3h7.8c0.7,1,1.8,1.6,3,1.6s2.4-0.6,3-1.6
			H979.5z"/>
	</g>
</g>
</svg>
