<?xml version="1.0" encoding="UTF-8"?>
<svg id="Layer_1" data-name="Layer 1" xmlns="http://www.w3.org/2000/svg" viewBox="0 0 829.49 591.98">
  <defs>
    <style>
      .cls-1, .cls-2 {
        fill: #f4f4f4;
      }

      .cls-3 {
        fill: #fff;
      }

      .cls-4 {
        fill: #3f3d56;
      }

      .cls-5 {
        fill: #6c63ff;
      }

      .cls-5, .cls-6 {
        isolation: isolate;
        opacity: .1;
      }

      .cls-7 {
        fill: #21db49;
      }

      .cls-8 {
        fill: #323444;
      }

      .cls-9 {
        fill: #303030;
      }

      .cls-10 {
        fill: #232323;
      }

      .cls-11 {
        fill: #fbb3b2;
      }

      .cls-12 {
        fill: #090814;
      }

      .cls-13 {
        fill: #e8e6e7;
      }

      .cls-14 {
        fill: #5b5583;
      }

      .cls-2 {
        stroke: #231f20;
        stroke-miterlimit: 10;
        stroke-width: .1px;
      }

      .cls-15 {
        fill: #3c354c;
      }

      .cls-16 {
        fill: #35ff69;
      }

      .cls-17 {
        fill: #00a8e8;
      }

      .cls-18 {
        fill: #262526;
      }
    </style>
  </defs>
  <g id="Group_33" data-name="Group 33">
    <rect id="Rectangle_127" data-name="Rectangle 127" class="cls-5" x="165" y="26" width="86" height="26" rx="7.43" ry="7.43"/>
    <rect id="Rectangle_128" data-name="Rectangle 128" class="cls-5" x="255" y="52" width="86" height="26" rx="7.43" ry="7.43"/>
    <rect id="Rectangle_131" data-name="Rectangle 131" class="cls-5" x="255" y="13" width="86" height="26" rx="7.43" ry="7.43"/>
    <rect id="Rectangle_132" data-name="Rectangle 132" class="cls-5" x="355" width="86" height="26" rx="7.43" ry="7.43"/>
    <rect id="Rectangle_133" data-name="Rectangle 133" class="cls-5" x="445" y="26" width="86" height="26" rx="7.43" ry="7.43"/>
    <rect id="Rectangle_134" data-name="Rectangle 134" class="cls-5" x="535" y="52" width="86" height="26" rx="7.43" ry="7.43"/>
    <rect id="Rectangle_137" data-name="Rectangle 137" class="cls-5" x="535" y="13" width="86" height="26" rx="7.43" ry="7.43"/>
    <rect id="Rectangle_165" data-name="Rectangle 165" class="cls-5" x="75" y="333" width="86" height="26" rx="7.43" ry="7.43"/>
    <rect id="Rectangle_171" data-name="Rectangle 171" class="cls-5" x="355" y="333" width="86" height="26" rx="7.43" ry="7.43"/>
    <rect id="Rectangle_173" data-name="Rectangle 173" class="cls-5" x="535" y="385" width="86" height="26" rx="7.43" ry="7.43"/>
    <rect id="Rectangle_174" data-name="Rectangle 174" class="cls-4" y="9" width="729" height="365" rx="7.21" ry="7.21"/>
    <rect id="Rectangle_177" data-name="Rectangle 177" class="cls-3" x="9.63" y="16.92" width="711.33" height="349.15" rx="7.21" ry="7.21"/>
    <path id="Path_448-1211" data-name="Path 448-1211" class="cls-6" d="m0,352h729v14.79c0,3.98-3.23,7.21-7.21,7.21H7.21C3.23,374,0,370.77,0,366.79v-14.79Z"/>
    <rect id="Rectangle_175" data-name="Rectangle 175" class="cls-12" x="71" y="325" width="54" height="27" rx="2.5" ry="2.5"/>
    <path id="Rectangle_176" data-name="Rectangle 176" class="cls-12" d="m142,348h33c1.1,0,2,.9,2,2h0c0,1.1-.9,2-2,2h-33c-1.1,0-2-.9-2-2h0c0-1.1.9-2,2-2Z"/>
    <path id="Path_449-1212" data-name="Path 449-1212" class="cls-17" d="m107.15,80.38c26.39,4.87,53.31,0,79.59-3.3l79.87-10c3.23-.41,7.93-2.34,9.83,1.61,1.07,2.21.35,7,.43,9.54.21,7,.19,14,0,21-.36,13.38-1.34,26.73-2.59,40.05-2.43,26.07-5.87,52-7.59,78.17-.88,13.32-1.32,26.68-.93,40,.09,3.18.22,6.36.41,9.53.21,3.55,1.8,8.82-2.07,11.19-2.21,1.36-6.56,1.29-9.09,1.69-4,.63-8,1.13-12.08,1.54-26.89,2.69-54.13,1.57-81.12,1.41l-81.5-.42-19.88-.11c-1.8,0-8.29,1.08-9.4-1.06-.47-.91.78-5.17,1-6.31.31-1.88.64-3.76,1-5.63,2.32-13.15,5.06-26.22,7.82-39.28,5.93-28,12-56.14,14.44-84.74,1.21-14.35.41-28.83,1.89-43.15.69-6.65,1.51-21.49,10.36-22.08,7.5-.5,15.22,0,22.74,0,.83,0,1.5-.67,1.5-1.5s-.67-1.5-1.5-1.5c-7.1,0-14.21-.19-21.31-.05-4.72.09-8,1.21-10.25,5.55-5.75,11.14-5.16,26-5.34,38.16-.43,29.11-4.9,57.6-10.72,86.07-2.93,14.33-6.09,28.61-9,42.95-1.37,6.85-2.68,13.72-3.88,20.61-.56,3.28-3.39,10.51-.9,13.52s10.15,1.39,13.58,1.41l23.86.14,45.72.26c29.54.17,59.18,1,88.71.13,14.1-.42,29-1,42.73-4.37,4.09-1,6.06-2.88,6.22-7.24.24-6.76-.86-13.73-1-20.52-1-58.1,12.65-115.39,11.25-173.51-.09-3.95,1.4-13.91-2.92-16.3-1.94-1.08-4.46-.49-6.5-.25-3.9.45-7.79,1-11.69,1.46l-50.65,6.32c-16.19,2-32.37,4.16-48.59,6-17.17,2-34.51,3.19-51.62,0-1.89-.35-2.7,2.54-.8,2.89l-.03.12Z"/>
    <path id="Path_450-1213" data-name="Path 450-1213" class="cls-17" d="m75.31,115.73l199.82-9.8c1.93-.1,1.94-3.1,0-3l-199.82,9.8c-1.92.09-1.93,3.09,0,3Z"/>
    <path id="Path_451-1214" data-name="Path 451-1214" class="cls-17" d="m136.87,91c-1.9,2.01-1.8,5.17.21,7.07.45.43.99.77,1.56,1,2.69,1.23,5.85.2,8.52-.47,4-1,8-1.89,12.11-2.62,8.95-1.58,18.01-2.43,27.09-2.52,4.14-.05,8.25.14,12.39.32,3,.12,6.23.36,8.77-1.5,2.9-2.12,3.84-6.26,1-8.84-4-3.65-12.62-1.53-17.24-1.15-16.76,1.39-33.42,3.88-49.86,7.44-1.88.4-1.09,3.3.8,2.89,10.85-2.34,21.78-4.22,32.79-5.64,5.41-.67,10.84-1.23,16.27-1.69,2.56-.21,5.12-.4,7.68-.55,1-.06,2.06-.17,3.08-.14,3.17.07,3.54-.5,1.64,3.33-1.69,3.39-1.15,3-4.08,2.89-1.24,0-2.48-.14-3.72-.2-2.54-.11-5.08-.16-7.62-.17-5.41,0-10.8.26-16.18.78-4.56.44-9.11,1.06-13.62,1.86-2.82.5-5.62,1.08-8.41,1.72-1.23.29-2.47.59-3.7.9-.59.16-1.19.3-1.78.45-2.19.76-4.05-.24-5.59-3,1.34-1.39-.77-3.52-2.12-2.12v-.04Z"/>
    <path id="Path_452-1215" data-name="Path 452-1215" class="cls-17" d="m173.09,133.68c-14.47-.56-30.1,3.35-39.63,15-7.46,9.11-11.71,24.74-3.81,35,8.49,11,27.11,9.06,38.34,4.37,11.88-5,24.88-15.31,28.45-28.21,4.45-16.11-10-28.29-25.05-28.47-.83,0-1.5.67-1.5,1.5s.67,1.5,1.5,1.5c8.58.1,17,3.78,21,11.77,4.19,8.42.58,17.26-5,24-8.94,10.73-22.92,18.82-37.16,18.59-8.55-.13-18-3.06-20.65-12.08-2.18-7.31-.52-15.3,3.28-21.78,8.22-14,24.95-18.74,40.29-18.14,1.93.07,1.93-2.93,0-3l-.06-.05Z"/>
    <path id="Path_453-1216" data-name="Path 453-1216" class="cls-17" d="m158.72,155.9c-2.02-.75-4.26.28-5.01,2.3-.2.54-.28,1.12-.23,1.7.3,3.9,4.6,5,7.83,4.77,2.79-.24,6.05-1.27,5.07-4.76-.36-1.25-1.26-2.28-2.44-2.82-.89-.36-1.87-.48-2.82-.35-.37,0-3.76,1.24-2.32-.25l-2.36-.31c.53.52.8,1.26.72,2,.01.83.7,1.5,1.54,1.48.25,0,.5-.07.71-.19,1.02-.43,2.19.05,2.62,1.07.17.4.2.85.09,1.27-.19.81.32,1.62,1.13,1.81.62.14,1.27-.12,1.61-.65,1-1.8,2.21-5.38.71-7.26-1-1.27-2.93-.89-4.13-.15-.74.52-1.43,1.12-2.06,1.77-1.21,1.07-2,1.57-1.55-.48.75-3.73,4.31-6.7,7.56-8.19l-2.2-1.69c-1.15,4.33-3.22,8.37-6.05,11.85l2.56,1.06c-.15-2.81,1.48-5.42,4.08-6.51h-1.47l.78,1.28c-.29,1.89,2.6,2.7,2.89.79.38-2.47-1.18-5.68-4.07-4.47-3.45,1.44-5.24,5.39-5.17,8.91,0,1.2,1.7,2.13,2.57,1.07,3.18-3.86,5.5-8.36,6.81-13.19.2-.82-.3-1.64-1.12-1.84-.37-.09-.76-.04-1.09.15-3,1.35-5.53,3.56-7.28,6.34-1.22,2-2.75,5.12-1.51,7.42.85,1.54,2.78,2.1,4.32,1.25,0,0,.02-.01.03-.02.92-.55,1.77-1.22,2.51-2,.37-.33.78-.9,1.27-1,.44-.3.42-.13-.07.53,0,1.04-.31,2.05-.87,2.92l2.74,1.15c.71-2.67-.89-5.41-3.56-6.11-1.19-.32-2.46-.18-3.55.38l2.26,1.3c.05-1.27-.35-2.52-1.13-3.53-.44-.72-1.37-.95-2.09-.51-.09.06-.18.12-.26.2-1.52,1.59-1.81,4.34.1,5.81,1.43,1.09,2.13,0,3.7-.25,5.33-.69,2.22,1.71.34,1.79-.84.09-1.69.03-2.51-.18-2.09-.71-2.22-1.62-.39-2.73,1.79.73,2.56-2.17.8-2.89l-.04-.04Z"/>
    <path id="Path_454-1217" data-name="Path 454-1217" class="cls-17" d="m156.31,161.38c1.23,4-3.85,5.32-6.26,6.7-1.69.95-3.17,2.24-4.33,3.79-2.52,3.38-3.46,7.68-4.29,11.73-.38,1.89,2.51,2.69,2.9.8.46-2.98,1.31-5.88,2.53-8.63,1.8-3.58,4.38-4.78,7.74-6.62s5.79-4.69,4.6-8.57c-.56-1.84-3.46-1.05-2.89.8h0Z"/>
    <path id="Path_455-1218" data-name="Path 455-1218" class="cls-17" d="m161.31,159.37c-1.48.21-2.57,1.5-2.5,3,0,1.19.79,1.95,1.33,2.9,1.28,1.94,2.26,4.07,2.9,6.31.48,2.15.95,6-.17,8-2.07,3.71-5.81,3-9,3-3,0-5.32,1-5.22-3.18.06-2.35,1.7-4.73,3-6.58l-2.74-.36c.58,3.05.88,6.15.91,9.26,0,1.39,2.13,2.16,2.79.75,1.61-3.38,2.88-6.91,3.81-10.54l-2.95-.4.52,7.6c.02.83.72,1.49,1.55,1.47.51-.01.97-.28,1.24-.71.35-.39.61-.85.75-1.35.1-.47-.82-3.64-1.19-2.51l2.94.4.21-7.22-3,.4c.63,2.04.83,4.18.56,6.3-.19,1.67,2.62,2.05,3,.4l1.88-9.7-2.74.35c.65,1.34.83,2.86.51,4.32-.22,1.92,2.78,1.9,3,0,.25-1.99-.06-4.01-.92-5.83-.43-.71-1.36-.94-2.07-.51-.32.2-.56.5-.67.87l-1.89,9.7,2.95.4c.3-2.38.07-4.8-.67-7.09-.23-.8-1.06-1.25-1.86-1.02-.63.18-1.07.76-1.08,1.41l-.21,7.22c.02.83.71,1.49,1.54,1.47.65-.01,1.22-.45,1.41-1.07l.16-.49c.14-.52,0-1.07-.38-1.46-3.11-3.38-3.74,2-4.82,3.49l2.8.76-.52-7.6c-.11-1.62-2.51-2.12-2.95-.4-.85,3.38-2.02,6.67-3.5,9.83l2.8.76c-.03-3.38-.37-6.74-1-10.06-.26-1.38-2.07-1.32-2.74-.36-2,2.88-5.46,9.17-2.79,12.62,2.33,3,9.66,1.84,12.79,1.65,4.94-.28,6.73-3.41,7.27-8.07.26-2.23.13-4.49-.37-6.68-.27-1.18-3-8.66-3.82-8.51,1.9-.35,1.09-3.25-.8-2.9l-.05-.04Z"/>
    <path id="Path_456-1219" data-name="Path 456-1219" class="cls-17" d="m155.5,166.11l-8.19,10.81,2.59,1.51,6-8.68-2.74-1.16-2.99,11.41c-.19.81.32,1.62,1.13,1.81.62.14,1.27-.12,1.61-.65,1.36-2.25,2.89-4.4,4.57-6.43l-2.5-1.46c-.67,2.58-1.97,4.96-3.77,6.93l2.51,1.46c.15-1.38.52-2.73,1.09-4,.77-1.73-1.67-3.26-2.59-1.52-.85,1.58-1.81,3.1-2.89,4.54l2.74.36.61-2.85-2.74-.36.44,2.5c.23.8,1.07,1.26,1.87,1.03.24-.07.46-.2.64-.37,2.54-2.62,4.57-5.69,6-9.05h-2.58c.68,1.25,1.15,2.6,1.41,4,.36,1.8,2.75,1.13,2.94-.4.43-3.35.65-6.72.66-10.1h-3v6.29c0,1.63,2.67,2.11,2.95.4.2-1.52.7-2.98,1.47-4.3h-2.63c.63,1.02.98,2.2,1,3.4,0,.83.67,1.5,1.5,1.5s1.5-.67,1.5-1.5l.38-2h-2.89c.29,1.77,1.39,11.74-2.52,10.57-.66-.16-.85-.12-.57.11l.89-1.9,2.09-4.43-2.8-.76c.18,2.06.37,5-.87,6.76-1,1.43-4.08,2-5.65,1.16-1.04-.74-1.92-1.67-2.61-2.74l-2.05,2c1.66,1.21,4.35,4.18,6.49,4.35,1.63.13,3-1.22,4.07-2.3,3.32-3.43,5.08-8.06,4.89-12.83,0-.83-.67-1.5-1.5-1.5s-1.5.67-1.5,1.5v3.42c0,.83.67,1.5,1.5,1.5s1.5-.67,1.5-1.5v-8.39c0-.83-.67-1.5-1.5-1.5s-1.5.67-1.5,1.5c0,2.01-.18,4.02-.52,6l2.95.4c-.23-2.39-.35-4.79-.33-7.19-.01-.83-.69-1.49-1.52-1.48-.66,0-1.24.45-1.42,1.08-.45,1.91-1,3.79-1.53,5.66l2.74-.36-.21-.8c-.14-1.91-3.14-1.92-3,0,.03.81.24,1.6.62,2.32.58,1.22,2.39.79,2.74-.36.57-1.88,1.08-3.76,1.53-5.66l-2.95-.4c-.02,2.4.1,4.8.33,7.19.15,1.54,2.63,2.2,2.94.4.4-2.26.61-4.55.63-6.84h-3v8.39h3v-3.42h-3c.18,3.77-1.13,7.46-3.65,10.28-.39.44-.81.86-1.26,1.24-.71.68-1.36.58-1.93-.31-1.42-.59-2.89-2.11-4.13-3s-2.94.87-2.06,2.05c2.3,3.06,5.73,6.47,10,5,4.49-1.59,5.1-7.67,4.76-11.67-.11-1.33-2.1-2.23-2.79-.75-1,2.11-2,4.21-3,6.33-.52.79-.83,1.7-.9,2.64.33,2.25,3.06,1.88,4.74,1.75,6.51-.49,5.48-9.72,4.73-14.36-.25-1.54-2.49-1.3-2.89,0-.32.91-.48,1.87-.49,2.84h3c-.11-1.72-.59-3.39-1.41-4.91-.43-.72-1.36-.95-2.07-.52-.21.13-.39.31-.52.52-.89,1.54-1.5,3.24-1.78,5l3,.4v-6.29c0-.83-.67-1.5-1.5-1.5s-1.5.67-1.5,1.5c-.01,3.38-.23,6.75-.66,10.1l2.95-.4c-.34-1.63-.92-3.21-1.71-4.68-.43-.72-1.36-.95-2.07-.52-.21.13-.39.31-.52.52-1.3,3.13-3.18,5.99-5.53,8.44l2.51.66-.44-2.5c-.23-1.33-2.11-1.37-2.74-.36-1,1.52-1.33,3.39-.91,5.16.25,1.42,2.05,1.27,2.74.36,1.08-1.43,2.04-2.95,2.89-4.53l-2.59-1.52c-.69,1.49-1.16,3.08-1.4,4.71-.18,1.32,1.39,2.7,2.51,1.46,2.15-2.35,3.71-5.18,4.54-8.26.37-1.36-1.51-2.65-2.51-1.46-1.84,2.2-3.51,4.54-5,7l2.74,1.16,3.05-11.37c.19-.81-.32-1.62-1.13-1.81-.62-.14-1.27.12-1.61.65l-6,8.69c-1.12,1.61,1.45,3,2.59,1.51l8.16-10.8c1.16-1.54-1.44-3-2.59-1.52h-.08Z"/>
    <path id="Path_457-1220" data-name="Path 457-1220" class="cls-17" d="m283.08,202.2c12-7.34,21.54-18.29,32.14-27.45,11.5-9.93,23.57-19.18,36-27.94,24.14-17,49.49-32.21,74.82-47.38.7-.44.91-1.37.47-2.07-.42-.66-1.28-.89-1.98-.52-25.33,15.17-50.69,30.35-74.83,47.38-11.39,8-22.51,16.48-33.17,25.48-11.6,9.8-21.93,22-35,29.91-1.65,1-.14,3.6,1.51,2.59h.04Z"/>
    <path id="Path_458-1221" data-name="Path 458-1221" class="cls-17" d="m464.77,52.85c-13,1.32-27,4.63-35,16-6.91,9.78-6.76,26.84-.27,36.88,7.37,11.41,22.43,11.82,34.13,8.13s23.81-10.16,23.7-24.14c-.06-7.5-2.77-15.31-5.76-22.11-2.58-5.87-7.15-11-14.07-10.35-1.91.18-1.93,3.18,0,3,9.27-.86,12.25,10.15,14.45,17.1,2,6.49,3.85,14.17.71,20.62s-10.71,9.74-17.18,12.1c-7,2.54-14.69,4.09-22,2-14.48-4.05-18.48-22.4-14.31-35.42,4.8-15,21.8-19.41,35.65-20.81,1.9-.19,1.92-3.19,0-3h-.05Z"/>
    <path id="Path_459-1222" data-name="Path 459-1222" class="cls-17" d="m484.77,168.85c-13,1.32-27,4.63-35,16-6.91,9.78-6.76,26.84-.27,36.88,7.37,11.41,22.43,11.82,34.13,8.13s23.81-10.16,23.7-24.14c-.06-7.5-2.77-15.31-5.76-22.11-2.58-5.87-7.15-11-14.07-10.35-1.91.18-1.93,3.18,0,3,9.27-.86,12.25,10.15,14.45,17.1,2,6.49,3.85,14.17.71,20.62s-10.71,9.74-17.18,12.1c-7,2.54-14.69,4.09-22,2-14.48-4.05-18.48-22.4-14.31-35.42,4.8-15,21.8-19.41,35.65-20.81,1.9-.19,1.92-3.19,0-3h-.05Z"/>
    <path id="Path_460-1223" data-name="Path 460-1223" class="cls-17" d="m445.16,82.06l9.47,10.8c.6.58,1.56.56,2.14-.04.17-.18.3-.39.36-.63,2-5.26,1.62-10.71,2.09-16.24.52-5.72,1.95-11.31,4.25-16.57,4.61-10.67,12.44-19.63,22.38-25.65,1.65-1,.14-3.6-1.51-2.59-9.8,5.9-17.67,14.54-22.63,24.86-2.43,5.02-4.11,10.37-5,15.87-1,6.49-.09,13.29-2.49,19.52l2.51-.67-9.42-10.78c-1.28-1.45-3.39.68-2.12,2.12h-.03Z"/>
    <path id="Path_461-1224" data-name="Path 461-1224" class="cls-17" d="m287.91,213.89c51.58-1.57,103.17-1.91,154.78-1,.83,0,1.5-.67,1.5-1.5s-.67-1.5-1.5-1.5c-51.59-.92-103.19-.59-154.78,1-1.93.06-1.94,3.06,0,3Z"/>
    <path id="Path_462-1225" data-name="Path 462-1225" class="cls-17" d="m453.47,184.31c17.63,6.92,34.59,15.44,50.67,25.46,1.64,1,3.15-1.57,1.51-2.59-16.29-10.14-33.47-18.76-51.34-25.76-1.79-.71-2.57,2.19-.79,2.89h-.05Z"/>
    <path id="Path_463-1226" data-name="Path 463-1226" class="cls-17" d="m485.49,170.72c-17.88,20.84-28.24,47.09-29.41,74.53-.08,1.93,2.92,1.93,3,0,1.14-26.65,11.18-52.15,28.53-72.41,1.25-1.46-.86-3.59-2.12-2.12h0Z"/>
    <path id="Path_464-1227" data-name="Path 464-1227" class="cls-17" d="m85.54,203l111.77-1.46,12.85-.17c2.31,0,4.62-.08,6.93-.09,3.25,0,5.44,2.7,5.38,6-.15,7-4.55,6.75-10.31,7l-13.89.63-56.56,2.49c-10.13.45-20.27,1-30.4,1.35-9.14.28-26.52-2.7-22.46-16,.56-1.85-2.33-2.64-2.9-.8-2,6.54,1.54,13.18,7.24,16.61,8.09,4.86,18.75,3.21,27.68,2.81l69.44-3.15,16.86-.75c4.32-.2,10.33.68,14.3-1.33,4.66-2.35,5.48-11.68,2.54-15.61-1.51-2-3.63-2.18-6-2.27-6.22-.24-12.55.17-18.78.25l-34.62.46-79.11,1c-.83,0-1.5.67-1.5,1.5s.67,1.5,1.5,1.5l.04.03Z"/>
    <g id="Michel">
      <path id="Path_465-1228" data-name="Path 465-1228" class="cls-8" d="m537.12,570.5c-2.52,1.58-5.4,2.47-8,3.86s-5.13,3.48-5.87,6.36c-.28.89-.23,1.86.13,2.72.65,1.04,1.64,1.83,2.8,2.22,10.67,4.74,22.83,4.88,33.61.38,1.88-.9,3.82-1.67,5.8-2.3,2.45-.5,4.93-.75,7.43-.76,2.62-.15,5.23-.49,7.81-1,1.3-.14,2.52-.65,3.54-1.47.93-1.07,1.49-2.41,1.59-3.82,1.18-7.79-.6-15.74-5-22.28-.55-.92-1.3-1.7-2.18-2.31-1.08-.56-2.26-.87-3.47-.93-5-.61-10.24-1.73-15.29-1.85-3.62-.08-5.44,1.64-8,4.13-5.29,5.29-8.38,12.98-14.9,17.05Z"/>
      <path id="Path_466-1229" data-name="Path 466-1229" class="cls-8" d="m610.81,569.76c0,4.9.59,10.09,3.56,14,1.36,1.69,3,3.13,4.86,4.25,6.28,4,14.6,5.47,21.22,2.08,1.07-.48,1.98-1.25,2.64-2.22,1-1.74.47-3.91-.09-5.83l-9.58-33.2c-6.19.95-15.29,1.62-20.79,4.76-3.99,2.27-1.82,11.78-1.82,16.16Z"/>
      <path id="Path_467-1230" data-name="Path 467-1230" class="cls-11" d="m531.5,365.33c-.58,1.83-2.68,2.68-3.83,4.22-1.35,1.81-1.21,4.32-.72,6.52.61,3.24,2.13,6.25,4.39,8.65,2.33,2.42,5.68,3.56,9,3.06,3.32-.61,5.82-3.37,6.11-6.73-.06-1.49-.38-2.95-.94-4.33l-6.82-19.72c-.02-.41-.36-.73-.77-.72-.17,0-.33.07-.46.18-1.61.76-4.84,1.56-5.78,3.23s.5,3.83-.18,5.64Z"/>
      <path id="Path_468-1231" data-name="Path 468-1231" class="cls-8" d="m528.31,364.34c2.49-.39,4.67-1.85,7-2.81s5.25-1.33,7.21.27c.56.46,1.1,1.09,1.83,1.08-.99-4.89-2.49-9.66-4.48-14.24-.07-.22-.21-.41-.39-.55-.27-.11-.58-.11-.85,0l-6.73,1.76c-2.49.65-2.78.45-2.59,2.9.05,1.09.61,11.59-1,11.59Z"/>
      <path id="Path_469-1232" data-name="Path 469-1232" class="cls-14" d="m527.57,221.94c-1,1.54-1,3.46-1,5.27,0,8.85.09,17.75,1.4,26.51.31,2.1.7,4.2.9,6.32.23,2.95.27,5.91.14,8.87l-1,38.5c-.12,4.71-.36,9.77-3.27,13.47-.88,1.24-1.3,2.75-1.17,4.27.76,9.66,2.36,19.24,3.95,28.79,5.19-2.34,11.19-2.06,16.14.77,5.05-15.86,7.84-32.36,8.29-49,.23-8.19-.12-16.43,1.14-24.52,2.11-13.62,1.25-27.59-.3-41.29-.49-4.34-1.53-8.81-4.31-12.17-2.63-2.94-6.14-4.96-10-5.76-3.7-.97-7.01.03-10.91-.03Z"/>
      <path id="Path_470-1233" data-name="Path 470-1233" class="cls-6" d="m527.57,221.94c-1,1.54-1,3.46-1,5.27,0,8.85.09,17.75,1.4,26.51.31,2.1.7,4.2.9,6.32.23,2.95.27,5.91.14,8.87l-1,38.5c-.12,4.71-.36,9.77-3.27,13.47-.88,1.24-1.3,2.75-1.17,4.27.76,9.66,2.36,19.24,3.95,28.79,5.19-2.34,11.19-2.06,16.14.77,5.05-15.86,7.84-32.36,8.29-49,.23-8.19-.12-16.43,1.14-24.52,2.11-13.62,1.25-27.59-.3-41.29-.49-4.34-1.53-8.81-4.31-12.17-2.63-2.94-6.14-4.96-10-5.76-3.7-.97-7.01.03-10.91-.03Z"/>
      <path id="Path_471-1234" data-name="Path 471-1234" class="cls-15" d="m539.79,333.59c-6.71,34.37-3.04,69.96,10.52,102.24,1.17,2.39,1.99,4.94,2.44,7.56.55,4.9-1.71,9.61-3,14.35-3,10.78-1.27,22.26.65,33.29.8,4.6,1.62,9.2,2.47,13.79.83,4.48,1.63,9.35-.45,13.41,1.79,7.46,2.85,14.85,4.64,22.31.19.59.25,1.21.17,1.83-.36.98-1,1.83-1.83,2.45-2.71,2.75-3.77,6.73-2.79,10.47,4.57-3.28,10.94-2.13,16.16,0s10.36,5,16,5c-.82-6.62-1.61-13.57.83-19.78,1.42-3.6,3.92-7,3.85-10.85-.07-3.45-2.18-6.53-2.69-9.94-.19-2.12-.11-4.26.24-6.36,1.34-12.24-.18-24.6-1.7-36.82-.17-2.41-.74-4.77-1.68-7-.71-1.44-1.77-2.82-1.75-4.43,0-1.87,1.51-3.39,2.07-5.17,1-3.28-.84-7.74,1.93-9.77,7.3-5.36,4.5-18.16,4.34-27.21-.13-7.81-.46-15.61-1-23.4,4.6,12.92,6.48,26.66,5.52,40.34-.32,4.48-.91,9.19.84,13.33,1.34,3.18,4,5.8,4.72,9.17.45,2.08.13,4.23.23,6.35s.82,4.43,2.65,5.5c.14,9.64,1,19.95,1.15,29.59-.1,4.93.3,9.85,1.2,14.7.45,1.54.7,3.13.74,4.74-.23,2.01-.76,3.98-1.58,5.83-3.54,10.48-1.67,22.03,5,30.85,2.36-4.19,7.28-6.41,12.08-6.76s9.54.86,14.19,2.08c-.71-5.84.45-11.76,3.32-16.9.77-1.16,1.36-2.43,1.75-3.76.54-2.54-.72-5.07-1.4-7.58-1.11-4-.72-8.31-.46-12.49.87-14,.25-28.05-1.85-41.92-.32-2.73-.97-5.42-1.91-8-.36-.92-.8-1.8-1.1-2.73-.47-1.67-.74-3.39-.8-5.12l-1.15-16c-.81-11.21,2.87-22.28,5.44-33.22,1.15-4.9,2.4-9.79,3.17-14.77,1.05-6.78,1.22-13.71,2.76-20.4,1.38-6,3.87-11.85,4.39-18,.8-9.53-3.16-18.74-7-27.48-1.6-3.6-7.65-3.24-11.54-3.88-27.59-4.53-56.65-4.56-82.67,5.65-2.69,1.11-5.11,2.79-7.11,4.91h0Z"/>
      <path id="Path_472-1235" data-name="Path 472-1235" class="cls-11" d="m559.68,156.1l3.06,11.9c.83,2.73,1.29,5.56,1.37,8.41.03,1.04-.2,2.07-.67,3-.5.76-1.15,1.42-1.9,1.94-2.09,1.59-3.54,5.3-5.93,6.4,1.23,2.14,2.93.75,5.15,1.82,3.91,1.9,7.49,4.63,11.73,5.57,4,.88,8.2.05,12.17-1,5.63-1.53,11.23-3.64,15.76-7.33s7.11-6.95,7.09-12.78c-5,.59-9.45-4.46-11.66-9-.77-1.73-1.33-3.53-1.68-5.39l-2.68-11.79c-2.92.64-5.3,2.73-8.09,3.82s-6.09,1.19-9.19,1.33c-5.5.25-10.98.96-16.36,2.12-.74.15-1.67.62-1.49,1.34"/>
      <path id="Path_473-1236" data-name="Path 473-1236" class="cls-6" d="m559.68,156.1l3.06,11.9c.83,2.73,1.29,5.56,1.37,8.41.03,1.04-.2,2.07-.67,3-.5.76-1.15,1.42-1.9,1.94-2.09,1.59-3.54,5.3-5.93,6.4,1.23,2.14,2.93.75,5.15,1.82,3.91,1.9,7.49,4.63,11.73,5.57,4,.88,8.2.05,12.17-1,5.63-1.53,11.23-3.64,15.76-7.33s7.11-6.95,7.09-12.78c-5,.59-9.45-4.46-11.66-9-.77-1.73-1.33-3.53-1.68-5.39l-2.68-11.79c-2.92.64-5.3,2.73-8.09,3.82s-6.09,1.19-9.19,1.33c-5.5.25-10.98.96-16.36,2.12-.74.15-1.67.62-1.49,1.34"/>
      <circle id="Ellipse_80" data-name="Ellipse 80" class="cls-11" cx="572.82" cy="136.18" r="26.48"/>
      <path id="Path_474-1237" data-name="Path 474-1237" class="cls-8" d="m580.11,179.83c1.42-3.06,3.46-5.78,6-8,3.73-3.27,8.83-5.92,9.71-10.8l8.08,9.41c.44.44.78.96,1,1.54.21,1.1-.07,2.23-.76,3.11-2,3.19-5.15,5.47-8.13,7.78-6.83,5.41-13.37,11.18-19.59,17.28-.27.32-.64.54-1.05.64-.39.01-.77-.1-1.09-.31-5.37-2.82-10.12-6.68-13.97-11.36-.29-.35-.65-.75-1.12-.72-.28.05-.54.19-.75.39-2.69,2.2-5.63,4.83-9.08,4.49,4.47-3.21,7-8.57,7.94-14,.19-1.86.57-3.69,1.14-5.47.6-1.81,2.06-3.19,3.9-3.7-2.18,3.33-.69,8.05,2.24,10.74,2.85,2.42,6.26,4.07,9.92,4.81,3.4.64,4.4-3.21,5.61-5.83Z"/>
      <path id="Path_475-1238" data-name="Path 475-1238" class="cls-8" d="m545.66,336.31c3.77.93,7.34,2.51,11,3.68,6.67,2.09,13.69,2.83,20.65,2.17,2.14-.05,4.23-.71,6-1.91.47-.38.9-.83,1.4-1.18.84-.5,1.74-.88,2.69-1.11,9.17-2.87,16.85-9.06,24.3-15.12.24-.2.51-.45.49-.77-.03-.22-.14-.42-.3-.57l-3.92-4.5c-10.28,1.75-20.81,1.09-31.24.83-2.14-.1-4.29-.04-6.42.17-2.06.24-4.09.76-6.12,1.2-7.71,1.68-15.59,2.32-23.4,3.42-.55.04-1.08.2-1.55.48-.33.25-.61.57-.83.92l-2.74,3.85c-1.06,1.3-1.85,2.8-2.3,4.41-.64,3,.7,4,3.25,3.61,3.01-.44,6.08-.3,9.04.42Z"/>
      <path id="Path_476-1239" data-name="Path 476-1239" class="cls-14" d="m576.31,195.57c-3.06-3.13-6.53-5.84-10.31-8.05-1.53-.97-3.22-1.65-5-2-1.81-.36-3.68.1-5.12,1.26-.89.79-1.45,1.89-2.31,2.72-1.08.91-2.32,1.61-3.66,2.07-4.55,1.95-8.87,4.4-12.86,7.33-2.18,1.52-4.14,3.33-5.83,5.38-4.53,5.8-5.21,13.69-5.09,21.05.09,5.12,5,8.92,8.38,12.75,3.17,3.77,6.04,7.78,8.58,12,1.82,2.88,3.72,6,3.49,9.43-.19,2.81-1.83,5.45-1.57,8.25.09,1,.41,1.92.5,2.89.18,2-.61,4-.81,6-.27,2.83.65,5.64.7,8.49-.04,1.95-.28,3.89-.74,5.79-1.92,9.14-4.33,18.33-3.84,27.66l-5.54,1c1.85,1.81,1.88,4.77.07,6.62-.33.34-.72.63-1.14.85,8.65,2.89,18,1.43,27.17,1.42,7.59,0,15.15,1,22.73.86s15.4-1.51,21.65-5.8c1.7-1.16,3.26-2.52,5.05-3.53,2.4-1.24,4.98-2.09,7.65-2.5,4.94-.94,9.97-1.39,15-1.34,2.46,0,5.14.1,7.1-1.38,2.16-1.64,2.71-4.61,3-7.3.29-2.84.47-5.69.52-8.54.08-2.22-.03-4.44-.35-6.64-.3-1.61-.69-3.2-1.17-4.76l-3.77-13.28c-1.56-5.48.61-11.49,1.07-17.17.11-1.34.13-2.9-.9-3.76-.37-.31-.88-.52-1-1-.11-.46-.02-.95.24-1.34,2-4,5-7.53,7.74-11.14,4.6-6.33,8.87-12.9,12.8-19.67-1.23-14.17-7.2-27.52-16.94-37.88-1.9-2.29-4.34-4.09-7.09-5.23-1.83-.56-3.73-.86-5.64-.91-7.84-.53-16-1-22.83-4.94-.49-.34-1.05-.57-1.63-.69-1.51-.17-2.61,1.32-3.59,2.5-2.52,3-6.23,4.72-9.49,6.93-6.08,4.13-10.83,9.81-15.22,15.6Z"/>
      <path id="Path_477-1240" data-name="Path 477-1240" class="cls-14" d="m659.42,224.28c1.56,4.94,1.41,10.22,1.92,15.37.3,3.11.85,6.19,1.63,9.21.36,1.66,1,3.25,1.9,4.69.9,1.32,2.19,2.39,2.76,3.88.31,1.01.45,2.06.41,3.12l.12,6.9c.26,3.66-.3,7.32-1.63,10.74l-4.31,13.11c-2.33,7.1-4.72,14.31-8.92,20.49-.59,1.05-1.49,1.89-2.57,2.41-.85.22-1.72.36-2.59.4-3.14.56-5.45,3.28-5.49,6.47-1-1.46-2.25-2.74-3.69-3.77l-8.77-7c-3-2.44-6.13-4.92-9.77-6.33,10-3.12,17.22-11.85,18.42-22.26,0-1.52.34-3.01,1-4.38.73-1.18,2.08-2.08,2.18-3.47.12-1.75-1.86-3.07-1.86-4.82,0-1.16.86-2.12,1.24-3.21.36-1.35.36-2.76,0-4.11l-1.21-6.72c-.07-.67-.28-1.33-.6-1.92-.45-.57-.95-1.1-1.5-1.58-2.08-2.33-1.16-6,0-8.87,2.66-6.37,6.1-12.39,10.22-17.93,1.47-1.86,2.83-3.8,4.07-5.82,1.06-1.84,1.3-4.39,2.42-6,1.44,3.78,3.39,7.51,4.62,11.4Z"/>
      <path id="Path_478-1241" data-name="Path 478-1241" class="cls-8" d="m620.11,304.38c-.45.33-.83.74-1.14,1.2-1.18,1.48-2.75,2.6-4.53,3.23,1,.72,1.91,1.43,2.85,2.16,6.95,5.37,13.32,11.46,19,18.17.63-2.25,4.4-2.09,5.32-4.24.22-.62.29-1.27.2-1.92-.19-3.37-.67-6.71-1.44-10-.3-1.69-.99-3.29-2-4.68-1.4-1.69-3.58-2.5-5.66-3.2-3.15-1.1-9.4-2.65-12.6-.72Z"/>
      <path id="Path_479-1242" data-name="Path 479-1242" class="cls-11" d="m607.61,312.24c-3,2.22-5.63,5-9,6.52-2.38,1.08-5.09,1.55-7.17,3.16,1.13,2.49,4.07,3.78,6.8,3.68,2.73-.27,5.35-1.23,7.61-2.79,1.79-1.1,3.89-2.38,5.84-1.61.3,1.52-1,2.95-1,4.49s1.28,2.66,2.54,3.47c6,3.87,13.72,3.55,20.87,3.1.41.02.81-.1,1.15-.34.31-.37.47-.84.43-1.32.09-1.58.13-3.15.14-4.73.41-2.6-.72-5.21-2.9-6.68-3.88-3.34-8.07-6.3-12.5-8.85-4.4-2.55-8.86-1.04-12.81,1.9Z"/>
      <path id="Path_480-1243" data-name="Path 480-1243" class="cls-15" d="m582.12,125.11c-4.44.53-7.67,4-7.22,7.77s4.41,6.37,8.85,5.83,7.67-4,7.22-7.76-4.41-6.37-8.85-5.84Zm1.51,12.56c-3.76.45-7.11-1.76-7.5-4.94s2.36-6.12,6.11-6.57,7.11,1.76,7.5,4.94-2.36,6.12-6.11,6.57Z"/>
      <path id="Path_481-1244" data-name="Path 481-1244" class="cls-15" d="m560.48,127.71c-4.44.53-7.67,4-7.22,7.76s4.41,6.37,8.85,5.84,7.67-4,7.22-7.77-4.41-6.36-8.85-5.83Zm1.51,12.55c-3.76.45-7.11-1.76-7.49-4.93s2.35-6.12,6.11-6.58,7.11,1.76,7.49,4.94-2.36,6.12-6.11,6.57h0Z"/>
      <path id="Path_482-1245" data-name="Path 482-1245" class="cls-15" d="m544.41,129.64l9.65,2.06-.95,2.54-9.1-2.67.4-1.93Z"/>
      <path id="Path_483-1246" data-name="Path 483-1246" class="cls-15" d="m598.2,123.18l-8.9,4.29,1.53,2.24,8.21-4.75-.84-1.78Z"/>
      <path id="Path_484-1247" data-name="Path 484-1247" class="cls-15" d="m568.44,131.06l6.77-.81-.35,1.68-5.81.39-.61-1.26Z"/>
      <path id="Path_485-1248" data-name="Path 485-1248" class="cls-10" d="m555.31,128.79c.64-1.37.98-2.86,1-4.37.02-.9.18-1.8.46-2.66.49-1.09,1.24-2.05,2.18-2.79,3.12-2.64,7.59-4,12-4.19,4.81-.22,9.59.81,13.88,3,1.31.61,2.48,1.48,3.45,2.56,1.4,1.71,1.7,3.92,3.11,5.61,1.96,2.09,4.86,3,7.66,2.4.49-1.74-.15-3.58.1-5.36.39-1.53.93-3.01,1.59-4.44,1.55-4.57-.71-9.87-5.37-12.6-1.63-1-3.56-1.65-4.78-3s-1.51-2.75-2.35-4.1c-2.23-3.57-8-5.24-12.39-3.59-1.38.52-2.6,1.31-4,1.87-2.6,1.07-5.56,1.26-8.42,1.62-2.82.26-5.58.98-8.16,2.14-2.47,1.22-4.54,3.18-5.11,5.52-.27,1.08-.21,2.2-.48,3.27-1.38,5.43-10.29,8.07-10.79,13.61-.18,2,.91,3.92,2.27,5.55.94,1.11,3.19,4.08,4.78,4.51s2.8-1.08,4.32-1.6c2.4-.75,3.85-.91,5.05-2.96Z"/>
      <g>
        <path class="cls-13" d="m611.96,236.17c-.12.02-.24.04-.36.05-4.81.57-9.22-2.36-10.71-6.77l1.38-.16c1.38,4.11,5.28,6.94,9.69,6.89Z"/>
        <path class="cls-7" d="m601.75,226.12c0,.38.02.76.07,1.15.08.7.24,1.38.45,2.02l-1.38.16c-.21-.64-.37-1.32-.45-2.02-.05-.39-.07-.77-.07-1.15-.02-5.04,3.75-9.4,8.87-10.01l.33-.04c-4.58,1.06-7.84,5.17-7.82,9.88h0Z"/>
        <path class="cls-16" d="m613,228.02c-.42.8-1.22,1.4-2.2,1.52s-1.89-.28-2.49-.96l4.68-.55Z"/>
        <path class="cls-18" d="m602.27,229.29l-1.38.16c-.21-.64-.37-1.32-.45-2.02-.05-.39-.07-.77-.07-1.15l1.38-.16c0,.38.02.76.07,1.15.08.7.24,1.38.45,2.02Z"/>
        <path class="cls-16" d="m620.19,223.94l-18.44,2.18c-.03-4.7,3.24-8.82,7.82-9.88,4.99-.43,9.5,2.9,10.63,7.7Z"/>
        <path class="cls-9" d="m620.39,225.07c.08.7.09,1.4.03,2.07l-18.16,2.14c-.21-.64-.37-1.32-.45-2.02-.05-.39-.07-.77-.07-1.15l18.44-2.18c.09.37.15.74.2,1.13Z"/>
        <path class="cls-9" d="m613.3,226.36c.07.59-.04,1.16-.3,1.65-.42.8-1.22,1.4-2.2,1.52s-1.89-.28-2.49-.96c-.36-.42-.61-.95-.68-1.54s.04-1.16.3-1.65c.42-.8,1.22-1.4,2.2-1.52s1.89.28,2.49.96c.36.41.61.95.67,1.53Z"/>
        <circle class="cls-1" cx="610.47" cy="226.7" r="2.29"/>
        <circle class="cls-2" cx="610.47" cy="226.7" r="1.64"/>
        <path class="cls-1" d="m620.42,227.14c-.41,4.52-3.85,8.32-8.47,9.03-4.41.06-8.31-2.77-9.69-6.89l6.04-.71c.6.68,1.51,1.08,2.49.96s1.78-.71,2.2-1.52l7.43-.88Z"/>
      </g>
    </g>
    <rect id="Rectangle_125" data-name="Rectangle 125" class="cls-4" x="109.99" y="585.07" width="719.5" height="2.9"/>
  </g>
</svg>