<?xml version="1.0" encoding="UTF-8"?>
<svg id="Layer_1" data-name="Layer 1" xmlns="http://www.w3.org/2000/svg" viewBox="0 0 762.28 652.42">
  <defs>
    <style>
      .cls-1 {
        fill: #2f2e41;
      }

      .cls-2 {
        fill: #3f3d56;
      }

      .cls-3 {
        fill: #2541b2;
      }

      .cls-4 {
        fill: #fbb3b2;
      }

      .cls-5 {
        fill: #00a8e8;
      }

      .cls-6 {
        fill: #e29c9c;
      }

      .cls-7 {
        fill: #f2f2f2;
      }
    </style>
  </defs>
  <circle class="cls-3" cx="677.87" cy="150.8" r="72"/>
  <path class="cls-2" d="m633.85,50.96c8.97,22,31.81,33.5,31.81,33.5,0,0,8.29-24.19-.69-46.19s-31.81-33.5-31.81-33.5c0,0-8.29,24.19.69,46.19Z"/>
  <path class="cls-3" d="m642.29,44.95c18.93,14.36,24.13,39.39,24.13,39.39,0,0-25.51,1.75-44.44-12.61s-24.13-39.39-24.13-39.39c0,0,25.51-1.75,44.44,12.61Z"/>
  <path class="cls-2" d="m669.26,38.38c-8.79,22.08-.31,46.19-.31,46.19,0,0,22.74-11.68,31.54-33.76s.31-46.19.31-46.19c0,0-22.74,11.68-31.54,33.76Z"/>
  <path class="cls-3" d="m679.51,39.9c3.68,23.48-9.94,45.11-9.94,45.11,0,0-19.59-16.43-23.27-39.9s9.94-45.11,9.94-45.11c0,0,19.59,16.43,23.27,39.9Z"/>
  <circle class="cls-7" cx="673.91" cy="143.23" r="37"/>
  <circle class="cls-2" cx="658.37" cy="132.91" r="12"/>
  <circle class="cls-1" cx="390.25" cy="71.97" r="33.78"/>
  <path class="cls-1" d="m326.72,310.73l7.84,152.81s-1.31,109.71,6.53,111.02,22.2,10.45,26.12,3.92,23.51-207.67,23.51-207.67c0,0,5.22,208.98,20.9,210.28s33.96-6.53,36.57-5.22,1.31-261.22,1.31-261.22l-122.77-3.92Z"/>
  <path class="cls-1" d="m350.23,573.26s-9.14,0-11.76,3.92-11.76,23.51-11.76,23.51c0,0-16.98,15.59,1.31,16.9s27.43-2.53,27.43-5.14,0-9.14,3.92-10.45,7.84-7.84,7.84-10.45-3.92-19.59-16.98-18.29Z"/>
  <path class="cls-1" d="m420.76,574.57s-6.53,26.12,0,27.43,10.45,3.92,11.76,7.84,14.37,8.45,24.82,7.14,15.67-8.45,11.76-12.37-23.51-26.12-24.82-30.04-23.51,0-23.51,0Z"/>
  <path class="cls-6" d="m375.05,96.53s-2.61,19.59-7.84,22.2,2.61,16.98,2.61,16.98l23.51,3.92,20.9-16.98s-3.92-24.82-3.92-26.12-35.27,0-35.27,0Z"/>
  <circle class="cls-4" cx="389.41" cy="82.16" r="31.35"/>
  <path class="cls-5" d="m388.76,135.06s-13.06-22.2-19.59-20.9-26.78,4.57-29.39,3.27-19.59,58.77-19.59,58.77c0,0-18.29,118.86-6.53,133.22s52.24,6.53,57.47,20.9,87.51-7.84,87.51-15.67,1.31-128,2.61-137.14-11.76-57.47-11.76-57.47c0,0-30.69-8.49-35.92-5.88s-7.84,10.45-24.82,20.9Z"/>
  <path class="cls-5" d="m342.39,121.35l-2.61-3.92s-27.43,3.92-35.27,2.61-31.35,1.31-31.35,1.31c0,0,5.22-14.37,10.45-15.67s11.76-5.22,11.76-5.22c0,0-13.06-19.59,0-26.12,0,0-60.08,23.51-64,45.71s91.43,56.16,91.43,56.16l19.59-54.86Z"/>
  <path class="cls-5" d="m439.05,122.65l10.45-2.61,52.24,5.22-16.98-18.29s10.45-13.06,3.92-19.59c0,0,69.22,26.12,61.39,43.1s-90.12,47.02-94.04,48.33-16.98-56.16-16.98-56.16Z"/>
  <path class="cls-4" d="m302.49,77.84c3.23.64,6,2.66,8.64,4.63,2.57,1.83,5.03,3.81,7.37,5.92,11.88,11.11,16.25,27.86,20.02,43.68-2.69,2.27-7.08.38-8.89-2.64s-1.93-6.71-2.64-10.15-2.44-7.15-5.8-8.21c.7,2.19-1,4.56-3.12,5.43s-4.52.63-6.81.37c-1.06-.06-2.11-.3-3.09-.7-1.77-.86-2.81-2.7-3.77-4.42-2.51-4.47-5.28-8.8-8.28-12.96-.68-1.07-1.57-2-2.61-2.73-4.18-2.55-8.68-5.89-6.59-11.96,1.72-5,11-7.16,15.57-6.26Z"/>
  <path class="cls-4" d="m476.15,85.62c-4.7.23-8.75,3.29-12.2,6.5-14.41,13.53-23.68,31.62-26.25,51.22-.17,1.31-.22,2.86.79,3.72,1.13.97,3,.4,3.92-.77.81-1.25,1.32-2.68,1.49-4.16.91-4.44,2.47-8.73,4.62-12.72,1.1-2.05,2.64-4.2,4.94-4.56,3.42-.54,5.98,3.08,9.25,4.23,3.86,1.35,8.18-1.07,10.52-4.42s3.26-7.45,4.55-11.33c1.29-3.88,3.21-7.85,6.73-9.92,3.75-2.2,12.39-3.73,8.73-9.91-2.66-4.49-12.18-8.12-17.1-7.88Z"/>
  <path class="cls-1" d="m355.46,64.82s-8.33-21.66,3.75-28.74l3.33,9.58s30.4-18.33,38.32-14.16l-7.5,10s35.4,0,37.9,13.74l-12.49.42s13.33,8.75,13.74,22.91l-26.66,1.67,12.91,7.5s-48.31,6.66-59.97-12.49l-3.33-10.41Z"/>
  <path class="cls-5" d="m275.13,89.35l19.59-15.67s-6.53,19.59,0,26.12l-24.82,5.22,5.22-15.67Z"/>
  <path class="cls-5" d="m503.7,98.49l-16.98-13.06s2.61,16.98-2.61,20.9,14.37,5.22,14.37,5.22l5.22-13.06Z"/>
  <circle class="cls-3" cx="107.91" cy="580.42" r="72"/>
  <path class="cls-2" d="m39.59,495.35c14.36,18.94,39.39,24.14,39.39,24.14,0,0,1.76-25.51-12.6-44.44s-39.39-24.14-39.39-24.14c0,0-1.76,25.51,12.6,44.44Z"/>
  <path class="cls-3" d="m46.19,487.36c22,8.98,33.49,31.82,33.49,31.82,0,0-24.19,8.28-46.19-.7S0,486.66,0,486.66c0,0,24.19-8.28,46.19.7Z"/>
  <path class="cls-2" d="m70.55,474.05c-2.79,23.6,11.64,44.7,11.64,44.7,0,0,18.95-17.16,21.74-40.76s-11.64-44.7-11.64-44.7c0,0-18.95,17.16-21.74,40.76Z"/>
  <path class="cls-3" d="m80.85,472.87c9.62,21.73,2.06,46.15,2.06,46.15,0,0-23.17-10.81-32.79-32.53s-2.06-46.15-2.06-46.15c0,0,23.17,10.81,32.79,32.53Z"/>
  <circle class="cls-7" cx="80.13" cy="584.13" r="37"/>
  <circle class="cls-2" cx="66.1" cy="595.88" r="12"/>
  <circle class="cls-3" cx="391.28" cy="546.88" r="72"/>
  <path class="cls-2" d="m359.84,442.39c6.21,22.94,27.46,37.15,27.46,37.15,0,0,11.19-22.99,4.99-45.93s-27.46-37.15-27.46-37.15c0,0-11.19,22.99-4.99,45.93Z"/>
  <path class="cls-3" d="m368.96,437.46c17.03,16.58,19.11,42.06,19.11,42.06,0,0-25.53-1.39-42.56-17.97s-19.11-42.06-19.11-42.06c0,0,25.53,1.39,42.56,17.97Z"/>
  <path class="cls-2" d="m396.53,434.26c-11.44,20.83-5.97,45.81-5.97,45.81,0,0,24.01-8.8,35.44-29.63s5.97-45.81,5.97-45.81c0,0-24.01,8.8-35.44,29.63Z"/>
  <path class="cls-3" d="m406.52,437.03c.77,23.75-15.4,43.55-15.4,43.55,0,0-17.43-18.71-18.2-42.46s15.4-43.55,15.4-43.55c0,0,17.43,18.71,18.2,42.46Z"/>
  <circle class="cls-7" cx="388.28" cy="538.88" r="37"/>
  <circle class="cls-2" cx="388.28" cy="517.88" r="12"/>
  <rect class="cls-1" x="215.28" y="616.88" width="375" height="2"/>
  <ellipse class="cls-3" cx="741.78" cy="184.88" rx="20.5" ry="16"/>
  <path class="cls-2" d="m175.42,522.91l32.79-26.26"/>
  <path class="cls-2" d="m177.52,543.15c9.91-8.01,20.17-15.56,30.77-22.64"/>
  <path class="cls-2" d="m199.39,541.02c11.58-5.51,22.15-12.93,31.25-21.97"/>
  <circle class="cls-2" cx="117.28" cy="630.88" r="18"/>
</svg>