<?xml version="1.0" encoding="UTF-8"?>
<svg id="Layer_1" data-name="Layer 1" xmlns="http://www.w3.org/2000/svg" viewBox="0 0 28.03 30.01">
  <defs>
    <style>
      .cls-1 {
        fill: #fff;
      }

      .cls-2 {
        fill: #4bb3fd;
      }

      .cls-3 {
        fill: #288fce;
      }
    </style>
  </defs>
  <rect class="cls-1" x="3.84" y="5.3" width="19.99" height="17.22"/>
  <path class="cls-2" d="m14.01,0C6.27,0,0,6.27,0,14.01c0,.62.03,1.22.13,1.83.38,3,1.72,5.71,3.7,7.8h.01c1.11,1.18,2.43,2.17,3.91,2.91h.02c.09.06.18.1.28.14h.02c1.8.87,3.82,1.34,5.95,1.34.84,0,1.66-.07,2.46-.22,6.57-1.16,11.55-6.9,11.55-13.79C28.03,6.27,21.75,0,14.01,0Zm8.48,17.36c-.06.12-.12.23-.17.34-.51.92-1.22,1.61-2.15,2.04-.91.45-2.03.67-3.33.67l.08-4.08c.68-.01,1.24-.1,1.65-.25.42-.16.72-.39.9-.69.18-.3.29-.69.29-1.17.01-.38-.06-.72-.2-1.02-.15-.29-.38-.54-.73-.75-.34-.21-.79-.38-1.36-.49-.57-.12-1.26-.18-2.09-.2l-3.02-.07c-.82-.01-1.51.02-2.08.12-.58.08-1.04.23-1.37.43-.35.2-.6.47-.76.82-.16.34-.25.76-.27,1.28,0,.31.03.58.1.79.08.21.17.38.28.52.1.15.17.27.22.36l2.92.06.05-2.16,2.99.06-.13,6.4-7.54-.15c-.27-.28-.58-.7-.95-1.26-.36-.55-.67-1.24-.92-2.07-.27-.83-.38-1.8-.36-2.92.01-.69.09-1.34.25-1.94.07-.3.16-.58.27-.84.34-.82.82-1.51,1.48-2.08.65-.58,1.47-1.01,2.45-1.31.97-.29,2.13-.43,3.47-.39l2.99.06c1.32.02,2.47.21,3.44.54.98.34,1.78.81,2.4,1.4.64.59,1.1,1.28,1.4,2.09.3.8.44,1.68.43,2.65-.03,1.28-.24,2.36-.64,3.22Z"/>
  <path class="cls-2" d="m3.84,23.64l4.06,2.95s-.08-.03-.13-.03h-.02c-1.56,0-7.13,5.04-5.7,2.96,1.58-2.3,1.78-5.87,1.78-5.87h.01Z"/>
  <path class="cls-3" d="m22.51,17.42l-6.03,10.39c-.8.15-1.62.22-2.46.22-2.13,0-4.15-.47-5.95-1.33h-.02c-.09-.05-.18-.09-.28-.15h-.02c-1.56,0-7.13,5.04-5.7,2.96,1.58-2.3,1.78-5.87,1.78-5.87-1.98-2.09-3.32-4.79-3.7-7.8l4.68-3.81c-.16.6-.24,1.25-.25,1.94-.02,1.12.09,2.09.36,2.92.25.83.57,1.51.92,2.07.37.55.68.98.95,1.26l7.54.15.13-6.4-2.99-.06-.05,2.16-2.92-.06c-.05-.09-.12-.21-.22-.36-.1-.14-.2-.31-.28-.52-.07-.21-.1-.47-.1-.79.01-.52.1-.95.27-1.28.16-.35.42-.62.76-.82.34-.2.8-.35,1.37-.43.57-.09,1.26-.13,2.08-.12l3.02.07c.83.01,1.53.08,2.09.2.58.1,1.03.28,1.36.49.35.21.58.46.73.75.14.3.21.64.2,1.02,0,.47-.1.87-.29,1.17-.18.3-.49.53-.9.69-.42.15-.97.24-1.65.25l-.08,4.08c1.29,0,2.41-.22,3.33-.67.92-.44,1.64-1.12,2.15-2.04.06-.1.12-.22.17-.34v.06Z"/>
</svg>