<?xml version="1.0" encoding="UTF-8"?>
<svg id="Layer_1" data-name="Layer 1" xmlns="http://www.w3.org/2000/svg" xmlns:xlink="http://www.w3.org/1999/xlink" viewBox="0 0 24.57 22.23">
  <defs>
    <style>
      .cls-1 {
        fill: #ff00ae;
      }

      .cls-2 {
        clip-path: url(#clippath);
      }

      .cls-3 {
        fill: none;
      }
    </style>
    <clipPath id="clippath">
      <rect class="cls-3" width="24.57" height="22.23"/>
    </clipPath>
  </defs>
  <g class="cls-2">
    <path class="cls-1" d="m11.69,5.61c-3.05,0-5.51,2.46-5.51,5.51s2.46,5.51,5.51,5.51,5.51-2.46,5.51-5.51-2.46-5.51-5.51-5.51Zm0,9.1c-1.97,0-3.58-1.61-3.58-3.58s1.61-3.58,3.58-3.58,3.58,1.61,3.58,3.58-1.61,3.58-3.58,3.58h0Zm7.02-9.32c0,.71-.58,1.29-1.29,1.29s-1.29-.58-1.29-1.29.58-1.29,1.29-1.29,1.29.58,1.29,1.29Zm3.65,1.31c-.08-1.72-.48-3.25-1.74-4.51-1.26-1.26-2.78-1.65-4.51-1.74-1.78-.1-7.1-.1-8.87,0-1.72.08-3.24.48-4.51,1.73s-1.65,2.78-1.74,4.51c-.1,1.78-.1,7.1,0,8.87.08,1.72.48,3.25,1.74,4.51,1.26,1.26,2.78,1.65,4.51,1.74,1.78.1,7.1.1,8.87,0,1.72-.08,3.25-.48,4.51-1.74,1.26-1.26,1.65-2.78,1.74-4.51.1-1.78.1-7.09,0-8.87h0Zm-2.29,10.77c-.37.94-1.1,1.67-2.04,2.04-1.42.56-4.77.43-6.34.43s-4.93.12-6.34-.43c-.94-.37-1.67-1.1-2.04-2.04-.56-1.42-.43-4.77-.43-6.34s-.12-4.93.43-6.34c.37-.94,1.1-1.67,2.04-2.04,1.42-.56,4.77-.43,6.34-.43s4.93-.12,6.34.43c.94.37,1.67,1.1,2.04,2.04.56,1.42.43,4.77.43,6.34s.13,4.93-.43,6.34Z"/>
  </g>
</svg>