<?xml version="1.0" encoding="UTF-8"?>
<svg id="Layer_1" data-name="Layer 1" xmlns="http://www.w3.org/2000/svg" viewBox="0 0 32 32">
  <defs>
    <style>
      .cls-1, .cls-2 {
        fill: #f4f4f4;
      }

      .cls-3 {
        fill: #21db49;
      }

      .cls-4 {
        fill: #303030;
      }

      .cls-5 {
        fill: #e8e6e7;
      }

      .cls-2 {
        stroke: #231f20;
        stroke-miterlimit: 10;
        stroke-width: .1px;
      }

      .cls-6 {
        fill: #35ff69;
      }

      .cls-7 {
        fill: #262526;
      }
    </style>
  </defs>
  <path class="cls-5" d="m16.51,29.92c-.17.01-.34.01-.51.01-6.71,0-12.31-4.75-13.64-11.07h1.93c1.23,5.89,6.14,10.42,12.22,11.06Z"/>
  <path class="cls-3" d="m4.09,14.41c-.06.52-.09,1.05-.09,1.59,0,.98.1,1.94.29,2.86h-1.93c-.19-.92-.29-1.88-.29-2.86,0-.54.03-1.07.09-1.59.79-6.94,6.69-12.34,13.84-12.34.15,0,.31,0,.46,0-6.48.71-11.64,5.85-12.37,12.33Z"/>
  <path class="cls-6" d="m19.27,18.86c-.71,1.04-1.91,1.73-3.27,1.73s-2.56-.69-3.27-1.73h6.54Z"/>
  <path class="cls-7" d="m4.29,18.86h-1.93c-.19-.92-.29-1.88-.29-2.86,0-.54.03-1.07.09-1.59h1.93c-.06.52-.09,1.05-.09,1.59,0,.98.1,1.94.29,2.86Z"/>
  <path class="cls-6" d="m29.84,14.41H4.09c.73-6.48,5.89-11.62,12.37-12.33,6.94.22,12.61,5.54,13.38,12.33Z"/>
  <path class="cls-4" d="m29.93,16c0,.98-.1,1.94-.29,2.86H4.29c-.19-.92-.29-1.88-.29-2.86,0-.54.03-1.07.09-1.59h25.75c.06.52.09,1.05.09,1.59Z"/>
  <path class="cls-4" d="m19.95,16.63c0,.82-.25,1.59-.68,2.23-.71,1.04-1.91,1.73-3.27,1.73s-2.56-.69-3.27-1.73c-.43-.64-.68-1.41-.68-2.23s.25-1.59.68-2.22c.71-1.04,1.91-1.73,3.27-1.73s2.56.69,3.27,1.73c.43.63.68,1.4.68,2.22Z"/>
  <circle class="cls-1" cx="16" cy="16.63" r="3.17"/>
  <circle class="cls-2" cx="16" cy="16.63" r="2.28"/>
  <path class="cls-1" d="m29.64,18.86c-1.3,6.16-6.65,10.83-13.13,11.06-6.08-.64-10.99-5.17-12.22-11.06h8.44c.71,1.04,1.91,1.73,3.27,1.73s2.56-.69,3.27-1.73h10.37Z"/>
</svg>